<?xml version="1.0" encoding="UTF-8"?>
<svg id="Layer_1" data-name="Layer 1" xmlns="http://www.w3.org/2000/svg" viewBox="0 0 420 65">
  <defs>
    <style>
      .cls-1 {
        stroke: #113946;
        stroke-miterlimit: 10;
        stroke-width: 1.03px;
      }

      .cls-1, .cls-2 {
        fill: #113946;
      }

      .cls-2 {
        stroke-width: 0px;
      }
    </style>
  </defs>
  <path class="cls-2" d="m26.87,1.24c2.26,0,3.91,0,5.04.09,1.13.09,2.43.26,4.08.61,1.65.35,2.87.87,3.65,1.56,1.48,1.39,2.87,4.08,2.87,8.16v21.71c0,4.08-1.39,6.77-2.87,8.16-.78.69-2,1.22-3.65,1.56s-2.95.52-4.08.61-2.78.09-5.04.09h-12.15v18.23c0,1.74-.87,1.74-1.74,1.74H2.56c-.87,0-1.74,0-1.74-1.74V2.98c0-1.74.87-1.74,1.74-1.74h24.31Zm1.74,13.89c0-1.74-.87-1.74-1.74-1.74h-12.15v18.23h12.15c.87,0,1.74,0,1.74-1.74v-14.76Z"/>
  <path class="cls-2" d="m91.11,1.24c.87,0,1.74,0,1.74,1.74v59.04c0,1.74-.87,1.74-1.74,1.74h-10.42c-.87,0-1.74,0-1.74-1.74v-23.44h-13.89v23.44c0,1.74-.87,1.74-1.74,1.74h-10.42c-.87,0-1.74,0-1.74-1.74V2.98c0-1.74.87-1.74,1.74-1.74h10.42c.87,0,1.74,0,1.74,1.74v23.44h13.89V2.98c0-1.74.87-1.74,1.74-1.74h10.42Z"/>
  <path class="cls-1" d="m123.42,20.06c1.82,0,3.15,0,4.07.06.91.06,1.96.18,3.29.43,1.33.24,2.31.61,2.94,1.09,1.19.97,2.31,2.85,2.31,5.7v29.13c0,2.85-1.12,4.73-2.31,5.71-.63.49-1.61.85-2.94,1.09s-2.38.36-3.29.42c-.91.06-2.24.06-4.07.06h-8.41c-1.82,0-3.15,0-4.07-.06s-2.03-.18-3.36-.42c-3.65-.67-4.84-2.43-5.19-6.8v-29.13c0-2.85,1.12-4.73,2.31-5.7.63-.49,1.54-.85,2.87-1.09,1.33-.24,2.45-.36,3.36-.43.91-.06,2.24-.06,4.07-.06h8.41Zm1.4,9.71c0-1.21-.7-1.21-1.4-1.21h-8.41c-.7,0-1.4,0-1.4,1.21v24.28c0,1.21.7,1.21,1.4,1.21h8.41c.7,0,1.4,0,1.4-1.21v-24.28Z"/>
  <path class="cls-2" d="m204.06,1.24c2.26,0,3.91,0,5.03.09,1.13.09,2.43.26,4.08.61,1.65.35,2.87.87,3.65,1.56,1.48,1.39,2.86,4.08,2.86,8.16v41.67c0,4.08-1.39,6.77-2.86,8.16-.78.69-2,1.22-3.65,1.56s-2.95.52-4.08.61c-1.13.09-2.78.09-5.03.09h-10.42c-2.26,0-3.91,0-5.04-.09s-2.52-.26-4.17-.61c-4.51-.96-5.99-3.47-6.42-9.72V11.66c0-4.08,1.39-6.77,2.86-8.16.78-.69,1.91-1.22,3.56-1.56,1.65-.35,3.04-.52,4.17-.61,1.13-.09,2.78-.09,5.04-.09h10.42Zm1.74,13.89c0-1.74-.87-1.74-1.74-1.74h-10.42c-.87,0-1.74,0-1.74,1.74v34.73c0,1.74.87,1.74,1.74,1.74h10.42c.87,0,1.74,0,1.74-1.74V15.14Z"/>
  <path class="cls-2" d="m271.6,62.02c.61,1.82-.69,1.74-1.56,1.74h-10.42c-1.39,0-2.08.09-2.6-1.74l-6.08-18.23h-7.81v18.23c0,1.74-.87,1.74-1.74,1.74h-10.42c-.87,0-1.74,0-1.74-1.74V2.98c0-1.74.87-1.74,1.74-1.74h24.31c2.26,0,3.91,0,5.04.09,1.13.09,2.43.26,4.08.61,1.65.35,2.86.87,3.65,1.56,1.48,1.39,2.87,4.08,2.87,8.16v21.71c0,5.12-1.91,8.33-5.64,9.55l6.34,19.1Zm-14.59-46.88c0-1.74-.87-1.74-1.74-1.74h-12.15v18.23h12.15c.87,0,1.74,0,1.74-1.74v-14.76Z"/>
  <path class="cls-2" d="m323.77,62.02c.26,1.65-.35,1.74-1.82,1.74h-9.98c-1.3,0-2.08.09-2.26-1.74l-1.91-11.29h-14.15l-1.91,11.29c-.26,1.65-.7,1.74-2.35,1.74h-9.98c-1.3,0-2.08.09-1.74-1.74l9.81-59.04c.26-1.65.87-1.74,2.35-1.74h21.79c1.3,0,2.08-.09,2.26,1.74l9.9,59.04Zm-28.13-23.44h10.16l-4.25-25.18h-1.74l-4.17,25.18Z"/>
  <path class="cls-2" d="m359.27,22.95c-.87,0-1.73,0-1.73-1.74v-6.08c0-1.74-.87-1.74-1.74-1.74h-10.42c-.87,0-1.74,0-1.74,1.74v34.73c0,1.74.87,1.74,1.74,1.74h10.42c.87,0,1.74,0,1.74-1.74v-9.55h-6.95c-.87,0-1.74,0-1.74-1.74v-8.68c0-1.74.87-1.74,1.74-1.74h19.1c.87,0,1.74,0,1.74,1.74v23.44c0,4.08-1.39,6.77-2.86,8.16-.78.69-2,1.22-3.65,1.56s-2.95.52-4.08.61c-1.13.09-2.78.09-5.04.09h-10.42c-2.26,0-3.91,0-5.04-.09-1.13-.09-2.52-.26-4.17-.61-4.52-.96-5.99-3.47-6.42-9.72V11.66c0-4.08,1.39-6.77,2.86-8.16.78-.69,1.91-1.22,3.56-1.56,1.65-.35,3.04-.52,4.17-.61,1.13-.09,2.78-.09,5.04-.09h10.42c2.26,0,3.91,0,5.04.09,1.13.09,2.43.26,4.08.61,1.65.35,2.86.87,3.65,1.56,1.48,1.39,2.86,4.08,2.86,8.16v9.55c0,1.74-.87,1.74-1.74,1.74h-10.42Z"/>
  <path class="cls-2" d="m394.87,13.4v13.02h21.7c.87,0,1.74,0,1.74,1.74v8.68c0,1.74-.87,1.74-1.74,1.74h-21.7v13.02h22.57c.87,0,1.74,0,1.74,1.74v8.68c0,1.74-.87,1.74-1.74,1.74h-34.73c-.87,0-1.74,0-1.74-1.74V2.98c0-1.74.87-1.74,1.74-1.74h34.73c.87,0,1.74,0,1.74,1.74v8.68c0,1.74-.87,1.74-1.74,1.74h-22.57Z"/>
  <path class="cls-2" d="m171.07,1.24h-26.05v60.77c0,1.74.87,1.74,1.74,1.74h10.42c.87,0,1.74,0,1.74-1.74V13.4h12.16c.87,0,1.74,0,1.74-1.74V2.98c0-1.74-.87-1.74-1.74-1.74Z"/>
  <path class="cls-2" d="m102.39,2.92v8.38c0,1.68,2.66,1.68,5.33,1.68h37.3V1.24h-37.3c-2.66,0-5.33,0-5.33,1.67Z"/>
</svg>